<mxfile host="app.diagrams.net" modified="2024-01-19T07:38:38.531Z" agent="Mozilla/5.0 (Windows NT 10.0; Win64; x64; rv:121.0) Gecko/20100101 Firefox/121.0" etag="xknlVs8boV9ZkcKoFD8T" version="22.1.20" type="google">
  <diagram id="C5RBs43oDa-KdzZeNtuy" name="Page-1">
    <mxGraphModel grid="1" page="1" gridSize="10" guides="1" tooltips="1" connect="1" arrows="1" fold="1" pageScale="1" pageWidth="10000" pageHeight="10000" math="0" shadow="0">
      <root>
        <mxCell id="WIyWlLk6GJQsqaUBKTNV-0" />
        <mxCell id="WIyWlLk6GJQsqaUBKTNV-1" parent="WIyWlLk6GJQsqaUBKTNV-0" />
        <mxCell id="PFVhn3xfLzy5heqzSY4o-7" style="edgeStyle=orthogonalEdgeStyle;rounded=0;orthogonalLoop=1;jettySize=auto;html=1;" edge="1" parent="WIyWlLk6GJQsqaUBKTNV-1" source="PFVhn3xfLzy5heqzSY4o-1">
          <mxGeometry relative="1" as="geometry">
            <mxPoint x="3040" y="2515" as="targetPoint" />
          </mxGeometry>
        </mxCell>
        <mxCell id="PFVhn3xfLzy5heqzSY4o-1" value="INPUT Target Sequence" style="ellipse;whiteSpace=wrap;html=1;" vertex="1" parent="WIyWlLk6GJQsqaUBKTNV-1">
          <mxGeometry x="2980" y="2545" width="120" height="80" as="geometry" />
        </mxCell>
        <mxCell id="PFVhn3xfLzy5heqzSY4o-14" style="edgeStyle=orthogonalEdgeStyle;rounded=0;orthogonalLoop=1;jettySize=auto;html=1;entryX=0.5;entryY=1;entryDx=0;entryDy=0;" edge="1" parent="WIyWlLk6GJQsqaUBKTNV-1" source="PFVhn3xfLzy5heqzSY4o-9" target="PFVhn3xfLzy5heqzSY4o-13">
          <mxGeometry relative="1" as="geometry" />
        </mxCell>
        <mxCell id="PFVhn3xfLzy5heqzSY4o-9" value="" style="shape=sumEllipse;perimeter=ellipsePerimeter;whiteSpace=wrap;html=1;backgroundOutline=1;" vertex="1" parent="WIyWlLk6GJQsqaUBKTNV-1">
          <mxGeometry x="3015" y="2465" width="50" height="50" as="geometry" />
        </mxCell>
        <mxCell id="PFVhn3xfLzy5heqzSY4o-11" style="edgeStyle=orthogonalEdgeStyle;rounded=0;orthogonalLoop=1;jettySize=auto;html=1;entryX=0;entryY=0.5;entryDx=0;entryDy=0;" edge="1" parent="WIyWlLk6GJQsqaUBKTNV-1" source="PFVhn3xfLzy5heqzSY4o-10" target="PFVhn3xfLzy5heqzSY4o-9">
          <mxGeometry relative="1" as="geometry" />
        </mxCell>
        <mxCell id="PFVhn3xfLzy5heqzSY4o-10" value="Patch Encoding" style="rounded=0;whiteSpace=wrap;html=1;" vertex="1" parent="WIyWlLk6GJQsqaUBKTNV-1">
          <mxGeometry x="2810" y="2460" width="120" height="60" as="geometry" />
        </mxCell>
        <mxCell id="PFVhn3xfLzy5heqzSY4o-15" style="edgeStyle=orthogonalEdgeStyle;rounded=0;orthogonalLoop=1;jettySize=auto;html=1;exitX=1;exitY=0.5;exitDx=0;exitDy=0;entryX=0;entryY=0.5;entryDx=0;entryDy=0;" edge="1" parent="WIyWlLk6GJQsqaUBKTNV-1" source="PFVhn3xfLzy5heqzSY4o-12" target="PFVhn3xfLzy5heqzSY4o-13">
          <mxGeometry relative="1" as="geometry" />
        </mxCell>
        <mxCell id="PFVhn3xfLzy5heqzSY4o-12" value="Positional Encoding" style="rounded=0;whiteSpace=wrap;html=1;" vertex="1" parent="WIyWlLk6GJQsqaUBKTNV-1">
          <mxGeometry x="2810" y="2380" width="120" height="60" as="geometry" />
        </mxCell>
        <mxCell id="PFVhn3xfLzy5heqzSY4o-17" style="edgeStyle=orthogonalEdgeStyle;rounded=0;orthogonalLoop=1;jettySize=auto;html=1;exitX=0.5;exitY=0;exitDx=0;exitDy=0;entryX=0.5;entryY=1;entryDx=0;entryDy=0;" edge="1" parent="WIyWlLk6GJQsqaUBKTNV-1" source="PFVhn3xfLzy5heqzSY4o-13" target="PFVhn3xfLzy5heqzSY4o-16">
          <mxGeometry relative="1" as="geometry" />
        </mxCell>
        <mxCell id="PFVhn3xfLzy5heqzSY4o-19" style="edgeStyle=orthogonalEdgeStyle;rounded=0;orthogonalLoop=1;jettySize=auto;html=1;entryX=0.5;entryY=1;entryDx=0;entryDy=0;" edge="1" parent="WIyWlLk6GJQsqaUBKTNV-1" source="PFVhn3xfLzy5heqzSY4o-13">
          <mxGeometry relative="1" as="geometry">
            <mxPoint x="3040" y="2350" as="targetPoint" />
          </mxGeometry>
        </mxCell>
        <mxCell id="PFVhn3xfLzy5heqzSY4o-13" value="" style="shape=sumEllipse;perimeter=ellipsePerimeter;whiteSpace=wrap;html=1;backgroundOutline=1;" vertex="1" parent="WIyWlLk6GJQsqaUBKTNV-1">
          <mxGeometry x="3015" y="2385" width="50" height="50" as="geometry" />
        </mxCell>
        <mxCell id="PFVhn3xfLzy5heqzSY4o-20" style="edgeStyle=orthogonalEdgeStyle;rounded=0;orthogonalLoop=1;jettySize=auto;html=1;exitX=0.5;exitY=1;exitDx=0;exitDy=0;entryX=0.5;entryY=1;entryDx=0;entryDy=0;" edge="1" parent="WIyWlLk6GJQsqaUBKTNV-1" source="PFVhn3xfLzy5heqzSY4o-16">
          <mxGeometry relative="1" as="geometry">
            <mxPoint x="3040" y="2350" as="targetPoint" />
          </mxGeometry>
        </mxCell>
        <mxCell id="1l6RFX5pzYX5avxoGkd9-20" style="edgeStyle=orthogonalEdgeStyle;rounded=0;orthogonalLoop=1;jettySize=auto;html=1;" edge="1" parent="WIyWlLk6GJQsqaUBKTNV-1" source="PFVhn3xfLzy5heqzSY4o-16">
          <mxGeometry relative="1" as="geometry">
            <mxPoint x="3040" y="1850" as="targetPoint" />
          </mxGeometry>
        </mxCell>
        <mxCell id="PFVhn3xfLzy5heqzSY4o-16" value="" style="rounded=1;whiteSpace=wrap;html=1;" vertex="1" parent="WIyWlLk6GJQsqaUBKTNV-1">
          <mxGeometry x="2940" y="1910" width="200" height="450" as="geometry" />
        </mxCell>
        <mxCell id="PFVhn3xfLzy5heqzSY4o-25" style="edgeStyle=orthogonalEdgeStyle;rounded=0;orthogonalLoop=1;jettySize=auto;html=1;entryX=0.5;entryY=1;entryDx=0;entryDy=0;" edge="1" parent="WIyWlLk6GJQsqaUBKTNV-1" target="PFVhn3xfLzy5heqzSY4o-24">
          <mxGeometry relative="1" as="geometry">
            <mxPoint x="3040" y="2370" as="sourcePoint" />
          </mxGeometry>
        </mxCell>
        <mxCell id="PFVhn3xfLzy5heqzSY4o-27" style="edgeStyle=orthogonalEdgeStyle;rounded=0;orthogonalLoop=1;jettySize=auto;html=1;entryX=0.5;entryY=1;entryDx=0;entryDy=0;" edge="1" parent="WIyWlLk6GJQsqaUBKTNV-1" source="PFVhn3xfLzy5heqzSY4o-24" target="1l6RFX5pzYX5avxoGkd9-1">
          <mxGeometry relative="1" as="geometry">
            <mxPoint x="3040" y="2230" as="targetPoint" />
          </mxGeometry>
        </mxCell>
        <mxCell id="PFVhn3xfLzy5heqzSY4o-24" value="Multi-head Self-Attention" style="rounded=0;whiteSpace=wrap;html=1;" vertex="1" parent="WIyWlLk6GJQsqaUBKTNV-1">
          <mxGeometry x="2980" y="2250" width="120" height="50" as="geometry" />
        </mxCell>
        <mxCell id="PFVhn3xfLzy5heqzSY4o-32" value="" style="endArrow=none;html=1;rounded=0;" edge="1" parent="WIyWlLk6GJQsqaUBKTNV-1">
          <mxGeometry width="50" height="50" relative="1" as="geometry">
            <mxPoint x="3040" y="2335" as="sourcePoint" />
            <mxPoint x="3120" y="2335" as="targetPoint" />
          </mxGeometry>
        </mxCell>
        <mxCell id="PFVhn3xfLzy5heqzSY4o-34" value="" style="endArrow=none;html=1;rounded=0;" edge="1" parent="WIyWlLk6GJQsqaUBKTNV-1">
          <mxGeometry width="50" height="50" relative="1" as="geometry">
            <mxPoint x="3120" y="2335" as="sourcePoint" />
            <mxPoint x="3120" y="2210" as="targetPoint" />
          </mxGeometry>
        </mxCell>
        <mxCell id="PFVhn3xfLzy5heqzSY4o-36" value="" style="endArrow=classic;html=1;rounded=0;entryX=1;entryY=0.5;entryDx=0;entryDy=0;" edge="1" parent="WIyWlLk6GJQsqaUBKTNV-1" target="1l6RFX5pzYX5avxoGkd9-1">
          <mxGeometry width="50" height="50" relative="1" as="geometry">
            <mxPoint x="3120" y="2210" as="sourcePoint" />
            <mxPoint x="3060" y="2210" as="targetPoint" />
          </mxGeometry>
        </mxCell>
        <mxCell id="1l6RFX5pzYX5avxoGkd9-11" style="edgeStyle=orthogonalEdgeStyle;rounded=0;orthogonalLoop=1;jettySize=auto;html=1;entryX=0.5;entryY=1;entryDx=0;entryDy=0;" edge="1" parent="WIyWlLk6GJQsqaUBKTNV-1" source="PFVhn3xfLzy5heqzSY4o-48" target="PFVhn3xfLzy5heqzSY4o-46">
          <mxGeometry relative="1" as="geometry" />
        </mxCell>
        <mxCell id="PFVhn3xfLzy5heqzSY4o-48" value="FFN&lt;br&gt;&lt;code&gt;class_embed&lt;/code&gt;" style="rounded=0;whiteSpace=wrap;html=1;" vertex="1" parent="WIyWlLk6GJQsqaUBKTNV-1">
          <mxGeometry x="2980" y="1990" width="120" height="50" as="geometry" />
        </mxCell>
        <mxCell id="PFVhn3xfLzy5heqzSY4o-57" value="&lt;font style=&quot;font-size: 18px;&quot;&gt;Transformer Decoder&lt;/font&gt;" style="text;html=1;strokeColor=none;fillColor=none;align=center;verticalAlign=middle;whiteSpace=wrap;rounded=0;" vertex="1" parent="WIyWlLk6GJQsqaUBKTNV-1">
          <mxGeometry x="2790" y="1950" width="90" height="60" as="geometry" />
        </mxCell>
        <mxCell id="1l6RFX5pzYX5avxoGkd9-6" style="edgeStyle=orthogonalEdgeStyle;rounded=0;orthogonalLoop=1;jettySize=auto;html=1;entryX=1;entryY=0.5;entryDx=0;entryDy=0;" edge="1" parent="WIyWlLk6GJQsqaUBKTNV-1" source="1l6RFX5pzYX5avxoGkd9-0" target="1l6RFX5pzYX5avxoGkd9-4">
          <mxGeometry relative="1" as="geometry" />
        </mxCell>
        <mxCell id="1l6RFX5pzYX5avxoGkd9-0" value="INPUT Encoder Encoded Vector Sequence" style="ellipse;whiteSpace=wrap;html=1;" vertex="1" parent="WIyWlLk6GJQsqaUBKTNV-1">
          <mxGeometry x="3170" y="2095" width="120" height="80" as="geometry" />
        </mxCell>
        <mxCell id="1l6RFX5pzYX5avxoGkd9-5" style="edgeStyle=orthogonalEdgeStyle;rounded=0;orthogonalLoop=1;jettySize=auto;html=1;entryX=0.5;entryY=1;entryDx=0;entryDy=0;" edge="1" parent="WIyWlLk6GJQsqaUBKTNV-1" source="1l6RFX5pzYX5avxoGkd9-1" target="1l6RFX5pzYX5avxoGkd9-4">
          <mxGeometry relative="1" as="geometry" />
        </mxCell>
        <mxCell id="1l6RFX5pzYX5avxoGkd9-9" style="edgeStyle=orthogonalEdgeStyle;rounded=0;orthogonalLoop=1;jettySize=auto;html=1;entryX=1;entryY=0.5;entryDx=0;entryDy=0;" edge="1" parent="WIyWlLk6GJQsqaUBKTNV-1" source="1l6RFX5pzYX5avxoGkd9-1" target="1l6RFX5pzYX5avxoGkd9-7">
          <mxGeometry relative="1" as="geometry">
            <Array as="points">
              <mxPoint x="3040" y="2180" />
              <mxPoint x="3120" y="2180" />
              <mxPoint x="3120" y="2075" />
            </Array>
          </mxGeometry>
        </mxCell>
        <mxCell id="1l6RFX5pzYX5avxoGkd9-1" value="Normalization" style="rounded=0;whiteSpace=wrap;html=1;" vertex="1" parent="WIyWlLk6GJQsqaUBKTNV-1">
          <mxGeometry x="2990" y="2195" width="100" height="30" as="geometry" />
        </mxCell>
        <mxCell id="1l6RFX5pzYX5avxoGkd9-14" style="edgeStyle=orthogonalEdgeStyle;rounded=0;orthogonalLoop=1;jettySize=auto;html=1;exitX=0.5;exitY=0;exitDx=0;exitDy=0;entryX=0.5;entryY=0;entryDx=0;entryDy=0;" edge="1" parent="WIyWlLk6GJQsqaUBKTNV-1" source="PFVhn3xfLzy5heqzSY4o-46" target="PFVhn3xfLzy5heqzSY4o-16">
          <mxGeometry relative="1" as="geometry" />
        </mxCell>
        <mxCell id="PFVhn3xfLzy5heqzSY4o-46" value="Normalization" style="rounded=0;whiteSpace=wrap;html=1;" vertex="1" parent="WIyWlLk6GJQsqaUBKTNV-1">
          <mxGeometry x="2990" y="1940" width="100" height="30" as="geometry" />
        </mxCell>
        <mxCell id="1l6RFX5pzYX5avxoGkd9-8" style="edgeStyle=orthogonalEdgeStyle;rounded=0;orthogonalLoop=1;jettySize=auto;html=1;entryX=0.5;entryY=1;entryDx=0;entryDy=0;" edge="1" parent="WIyWlLk6GJQsqaUBKTNV-1" source="1l6RFX5pzYX5avxoGkd9-4" target="1l6RFX5pzYX5avxoGkd9-7">
          <mxGeometry relative="1" as="geometry" />
        </mxCell>
        <mxCell id="1l6RFX5pzYX5avxoGkd9-4" value="Multi-head Self-Attention" style="rounded=0;whiteSpace=wrap;html=1;" vertex="1" parent="WIyWlLk6GJQsqaUBKTNV-1">
          <mxGeometry x="2980" y="2110" width="120" height="50" as="geometry" />
        </mxCell>
        <mxCell id="1l6RFX5pzYX5avxoGkd9-10" style="edgeStyle=orthogonalEdgeStyle;rounded=0;orthogonalLoop=1;jettySize=auto;html=1;entryX=0.5;entryY=1;entryDx=0;entryDy=0;" edge="1" parent="WIyWlLk6GJQsqaUBKTNV-1" source="1l6RFX5pzYX5avxoGkd9-7" target="PFVhn3xfLzy5heqzSY4o-48">
          <mxGeometry relative="1" as="geometry" />
        </mxCell>
        <mxCell id="1l6RFX5pzYX5avxoGkd9-13" style="edgeStyle=orthogonalEdgeStyle;rounded=0;orthogonalLoop=1;jettySize=auto;html=1;exitX=0.5;exitY=0;exitDx=0;exitDy=0;entryX=1;entryY=0.5;entryDx=0;entryDy=0;" edge="1" parent="WIyWlLk6GJQsqaUBKTNV-1" source="1l6RFX5pzYX5avxoGkd9-7" target="PFVhn3xfLzy5heqzSY4o-46">
          <mxGeometry relative="1" as="geometry">
            <Array as="points">
              <mxPoint x="3040" y="2050" />
              <mxPoint x="3120" y="2050" />
              <mxPoint x="3120" y="1955" />
            </Array>
          </mxGeometry>
        </mxCell>
        <mxCell id="1l6RFX5pzYX5avxoGkd9-7" value="Normalization" style="rounded=0;whiteSpace=wrap;html=1;" vertex="1" parent="WIyWlLk6GJQsqaUBKTNV-1">
          <mxGeometry x="2990" y="2060" width="100" height="30" as="geometry" />
        </mxCell>
        <mxCell id="1l6RFX5pzYX5avxoGkd9-17" style="edgeStyle=orthogonalEdgeStyle;rounded=0;orthogonalLoop=1;jettySize=auto;html=1;entryX=0;entryY=0.5;entryDx=0;entryDy=0;" edge="1" parent="WIyWlLk6GJQsqaUBKTNV-1" source="1l6RFX5pzYX5avxoGkd9-16" target="1l6RFX5pzYX5avxoGkd9-4">
          <mxGeometry relative="1" as="geometry" />
        </mxCell>
        <mxCell id="1l6RFX5pzYX5avxoGkd9-16" value="INPUT Object Queries&lt;br&gt;&lt;code&gt;(num_classes)&lt;/code&gt;" style="ellipse;whiteSpace=wrap;html=1;" vertex="1" parent="WIyWlLk6GJQsqaUBKTNV-1">
          <mxGeometry x="2780" y="2095" width="120" height="80" as="geometry" />
        </mxCell>
        <mxCell id="iXo4fdOBWfQgzPz0DK_l-0" style="edgeStyle=orthogonalEdgeStyle;rounded=0;orthogonalLoop=1;jettySize=auto;html=1;" edge="1" parent="WIyWlLk6GJQsqaUBKTNV-1" source="iXo4fdOBWfQgzPz0DK_l-1" target="iXo4fdOBWfQgzPz0DK_l-3">
          <mxGeometry relative="1" as="geometry" />
        </mxCell>
        <mxCell id="iXo4fdOBWfQgzPz0DK_l-1" value="INPUT Image" style="ellipse;whiteSpace=wrap;html=1;" vertex="1" parent="WIyWlLk6GJQsqaUBKTNV-1">
          <mxGeometry x="3680" y="2545" width="120" height="80" as="geometry" />
        </mxCell>
        <mxCell id="iXo4fdOBWfQgzPz0DK_l-2" style="edgeStyle=orthogonalEdgeStyle;rounded=0;orthogonalLoop=1;jettySize=auto;html=1;exitX=0.5;exitY=0;exitDx=0;exitDy=0;entryX=0.5;entryY=1;entryDx=0;entryDy=0;" edge="1" parent="WIyWlLk6GJQsqaUBKTNV-1" source="iXo4fdOBWfQgzPz0DK_l-3">
          <mxGeometry relative="1" as="geometry">
            <mxPoint x="3740" y="2430" as="targetPoint" />
          </mxGeometry>
        </mxCell>
        <mxCell id="iXo4fdOBWfQgzPz0DK_l-3" value="CNN" style="rounded=0;whiteSpace=wrap;html=1;" vertex="1" parent="WIyWlLk6GJQsqaUBKTNV-1">
          <mxGeometry x="3680" y="2455" width="120" height="60" as="geometry" />
        </mxCell>
        <mxCell id="iXo4fdOBWfQgzPz0DK_l-4" style="edgeStyle=orthogonalEdgeStyle;rounded=0;orthogonalLoop=1;jettySize=auto;html=1;entryX=0.5;entryY=1;entryDx=0;entryDy=0;" edge="1" parent="WIyWlLk6GJQsqaUBKTNV-1" source="iXo4fdOBWfQgzPz0DK_l-5" target="iXo4fdOBWfQgzPz0DK_l-12">
          <mxGeometry relative="1" as="geometry" />
        </mxCell>
        <mxCell id="iXo4fdOBWfQgzPz0DK_l-5" value="" style="shape=sumEllipse;perimeter=ellipsePerimeter;whiteSpace=wrap;html=1;backgroundOutline=1;" vertex="1" parent="WIyWlLk6GJQsqaUBKTNV-1">
          <mxGeometry x="3715" y="2380" width="50" height="50" as="geometry" />
        </mxCell>
        <mxCell id="iXo4fdOBWfQgzPz0DK_l-6" style="edgeStyle=orthogonalEdgeStyle;rounded=0;orthogonalLoop=1;jettySize=auto;html=1;entryX=0;entryY=0.5;entryDx=0;entryDy=0;" edge="1" parent="WIyWlLk6GJQsqaUBKTNV-1" source="iXo4fdOBWfQgzPz0DK_l-7" target="iXo4fdOBWfQgzPz0DK_l-5">
          <mxGeometry relative="1" as="geometry" />
        </mxCell>
        <mxCell id="iXo4fdOBWfQgzPz0DK_l-7" value="Patch Encoding" style="rounded=0;whiteSpace=wrap;html=1;" vertex="1" parent="WIyWlLk6GJQsqaUBKTNV-1">
          <mxGeometry x="3510" y="2375" width="120" height="60" as="geometry" />
        </mxCell>
        <mxCell id="iXo4fdOBWfQgzPz0DK_l-8" style="edgeStyle=orthogonalEdgeStyle;rounded=0;orthogonalLoop=1;jettySize=auto;html=1;exitX=1;exitY=0.5;exitDx=0;exitDy=0;entryX=0;entryY=0.5;entryDx=0;entryDy=0;" edge="1" parent="WIyWlLk6GJQsqaUBKTNV-1" source="iXo4fdOBWfQgzPz0DK_l-9" target="iXo4fdOBWfQgzPz0DK_l-12">
          <mxGeometry relative="1" as="geometry" />
        </mxCell>
        <mxCell id="iXo4fdOBWfQgzPz0DK_l-9" value="Positional Encoding" style="rounded=0;whiteSpace=wrap;html=1;" vertex="1" parent="WIyWlLk6GJQsqaUBKTNV-1">
          <mxGeometry x="3510" y="2295" width="120" height="60" as="geometry" />
        </mxCell>
        <mxCell id="iXo4fdOBWfQgzPz0DK_l-10" style="edgeStyle=orthogonalEdgeStyle;rounded=0;orthogonalLoop=1;jettySize=auto;html=1;exitX=0.5;exitY=0;exitDx=0;exitDy=0;entryX=0.5;entryY=1;entryDx=0;entryDy=0;" edge="1" parent="WIyWlLk6GJQsqaUBKTNV-1" source="iXo4fdOBWfQgzPz0DK_l-12" target="iXo4fdOBWfQgzPz0DK_l-14">
          <mxGeometry relative="1" as="geometry" />
        </mxCell>
        <mxCell id="iXo4fdOBWfQgzPz0DK_l-11" style="edgeStyle=orthogonalEdgeStyle;rounded=0;orthogonalLoop=1;jettySize=auto;html=1;entryX=0.5;entryY=1;entryDx=0;entryDy=0;" edge="1" parent="WIyWlLk6GJQsqaUBKTNV-1" source="iXo4fdOBWfQgzPz0DK_l-12" target="iXo4fdOBWfQgzPz0DK_l-16">
          <mxGeometry relative="1" as="geometry" />
        </mxCell>
        <mxCell id="iXo4fdOBWfQgzPz0DK_l-12" value="" style="shape=sumEllipse;perimeter=ellipsePerimeter;whiteSpace=wrap;html=1;backgroundOutline=1;" vertex="1" parent="WIyWlLk6GJQsqaUBKTNV-1">
          <mxGeometry x="3715" y="2300" width="50" height="50" as="geometry" />
        </mxCell>
        <mxCell id="iXo4fdOBWfQgzPz0DK_l-13" style="edgeStyle=orthogonalEdgeStyle;rounded=0;orthogonalLoop=1;jettySize=auto;html=1;exitX=0.5;exitY=1;exitDx=0;exitDy=0;entryX=0.5;entryY=1;entryDx=0;entryDy=0;" edge="1" parent="WIyWlLk6GJQsqaUBKTNV-1" source="iXo4fdOBWfQgzPz0DK_l-14" target="iXo4fdOBWfQgzPz0DK_l-16">
          <mxGeometry relative="1" as="geometry" />
        </mxCell>
        <mxCell id="iXo4fdOBWfQgzPz0DK_l-14" value="" style="rounded=1;whiteSpace=wrap;html=1;" vertex="1" parent="WIyWlLk6GJQsqaUBKTNV-1">
          <mxGeometry x="3640" y="1905" width="200" height="380" as="geometry" />
        </mxCell>
        <mxCell id="iXo4fdOBWfQgzPz0DK_l-15" style="edgeStyle=orthogonalEdgeStyle;rounded=0;orthogonalLoop=1;jettySize=auto;html=1;entryX=0.5;entryY=1;entryDx=0;entryDy=0;" edge="1" parent="WIyWlLk6GJQsqaUBKTNV-1" source="iXo4fdOBWfQgzPz0DK_l-16" target="iXo4fdOBWfQgzPz0DK_l-19">
          <mxGeometry relative="1" as="geometry" />
        </mxCell>
        <mxCell id="iXo4fdOBWfQgzPz0DK_l-16" value="Normalization" style="rounded=0;whiteSpace=wrap;html=1;" vertex="1" parent="WIyWlLk6GJQsqaUBKTNV-1">
          <mxGeometry x="3690" y="2235" width="100" height="30" as="geometry" />
        </mxCell>
        <mxCell id="iXo4fdOBWfQgzPz0DK_l-17" value="" style="endArrow=classic;html=1;rounded=0;entryX=0.5;entryY=1;entryDx=0;entryDy=0;" edge="1" parent="WIyWlLk6GJQsqaUBKTNV-1" target="iXo4fdOBWfQgzPz0DK_l-16">
          <mxGeometry width="50" height="50" relative="1" as="geometry">
            <mxPoint x="3739.5" y="2285" as="sourcePoint" />
            <mxPoint x="3740" y="2265" as="targetPoint" />
          </mxGeometry>
        </mxCell>
        <mxCell id="iXo4fdOBWfQgzPz0DK_l-18" style="edgeStyle=orthogonalEdgeStyle;rounded=0;orthogonalLoop=1;jettySize=auto;html=1;entryX=0.5;entryY=1;entryDx=0;entryDy=0;" edge="1" parent="WIyWlLk6GJQsqaUBKTNV-1" source="iXo4fdOBWfQgzPz0DK_l-19" target="iXo4fdOBWfQgzPz0DK_l-21">
          <mxGeometry relative="1" as="geometry" />
        </mxCell>
        <mxCell id="iXo4fdOBWfQgzPz0DK_l-19" value="Multi-head Self-Attention" style="rounded=0;whiteSpace=wrap;html=1;" vertex="1" parent="WIyWlLk6GJQsqaUBKTNV-1">
          <mxGeometry x="3680" y="2165" width="120" height="50" as="geometry" />
        </mxCell>
        <mxCell id="iXo4fdOBWfQgzPz0DK_l-20" style="edgeStyle=orthogonalEdgeStyle;rounded=0;orthogonalLoop=1;jettySize=auto;html=1;entryX=0.5;entryY=1;entryDx=0;entryDy=0;" edge="1" parent="WIyWlLk6GJQsqaUBKTNV-1" source="iXo4fdOBWfQgzPz0DK_l-21" target="iXo4fdOBWfQgzPz0DK_l-26">
          <mxGeometry relative="1" as="geometry" />
        </mxCell>
        <mxCell id="iXo4fdOBWfQgzPz0DK_l-21" value="" style="shape=orEllipse;perimeter=ellipsePerimeter;whiteSpace=wrap;html=1;backgroundOutline=1;" vertex="1" parent="WIyWlLk6GJQsqaUBKTNV-1">
          <mxGeometry x="3720" y="2105" width="40" height="40" as="geometry" />
        </mxCell>
        <mxCell id="iXo4fdOBWfQgzPz0DK_l-22" value="" style="endArrow=none;html=1;rounded=0;" edge="1" parent="WIyWlLk6GJQsqaUBKTNV-1">
          <mxGeometry width="50" height="50" relative="1" as="geometry">
            <mxPoint x="3740" y="2275" as="sourcePoint" />
            <mxPoint x="3820" y="2275" as="targetPoint" />
          </mxGeometry>
        </mxCell>
        <mxCell id="iXo4fdOBWfQgzPz0DK_l-23" value="" style="endArrow=none;html=1;rounded=0;" edge="1" parent="WIyWlLk6GJQsqaUBKTNV-1">
          <mxGeometry width="50" height="50" relative="1" as="geometry">
            <mxPoint x="3820" y="2275" as="sourcePoint" />
            <mxPoint x="3820" y="2125" as="targetPoint" />
          </mxGeometry>
        </mxCell>
        <mxCell id="iXo4fdOBWfQgzPz0DK_l-24" value="" style="endArrow=classic;html=1;rounded=0;" edge="1" parent="WIyWlLk6GJQsqaUBKTNV-1">
          <mxGeometry width="50" height="50" relative="1" as="geometry">
            <mxPoint x="3820" y="2125" as="sourcePoint" />
            <mxPoint x="3760" y="2125" as="targetPoint" />
          </mxGeometry>
        </mxCell>
        <mxCell id="iXo4fdOBWfQgzPz0DK_l-25" style="edgeStyle=orthogonalEdgeStyle;rounded=0;orthogonalLoop=1;jettySize=auto;html=1;entryX=0.5;entryY=1;entryDx=0;entryDy=0;" edge="1" parent="WIyWlLk6GJQsqaUBKTNV-1" source="iXo4fdOBWfQgzPz0DK_l-26" target="iXo4fdOBWfQgzPz0DK_l-28">
          <mxGeometry relative="1" as="geometry" />
        </mxCell>
        <mxCell id="iXo4fdOBWfQgzPz0DK_l-26" value="Normalization" style="rounded=0;whiteSpace=wrap;html=1;" vertex="1" parent="WIyWlLk6GJQsqaUBKTNV-1">
          <mxGeometry x="3690" y="2055" width="100" height="30" as="geometry" />
        </mxCell>
        <mxCell id="iXo4fdOBWfQgzPz0DK_l-27" style="edgeStyle=orthogonalEdgeStyle;rounded=0;orthogonalLoop=1;jettySize=auto;html=1;entryX=0.5;entryY=1;entryDx=0;entryDy=0;" edge="1" parent="WIyWlLk6GJQsqaUBKTNV-1" source="iXo4fdOBWfQgzPz0DK_l-28" target="iXo4fdOBWfQgzPz0DK_l-29">
          <mxGeometry relative="1" as="geometry" />
        </mxCell>
        <mxCell id="iXo4fdOBWfQgzPz0DK_l-28" value="MLP" style="rounded=0;whiteSpace=wrap;html=1;" vertex="1" parent="WIyWlLk6GJQsqaUBKTNV-1">
          <mxGeometry x="3680" y="1985" width="120" height="50" as="geometry" />
        </mxCell>
        <mxCell id="iXo4fdOBWfQgzPz0DK_l-37" style="edgeStyle=orthogonalEdgeStyle;rounded=0;orthogonalLoop=1;jettySize=auto;html=1;entryX=1;entryY=0.5;entryDx=0;entryDy=0;" edge="1" parent="WIyWlLk6GJQsqaUBKTNV-1" source="iXo4fdOBWfQgzPz0DK_l-29" target="1l6RFX5pzYX5avxoGkd9-0">
          <mxGeometry relative="1" as="geometry">
            <Array as="points">
              <mxPoint x="3740" y="1830" />
              <mxPoint x="3430" y="1830" />
              <mxPoint x="3430" y="2135" />
            </Array>
          </mxGeometry>
        </mxCell>
        <mxCell id="iXo4fdOBWfQgzPz0DK_l-29" value="" style="shape=orEllipse;perimeter=ellipsePerimeter;whiteSpace=wrap;html=1;backgroundOutline=1;" vertex="1" parent="WIyWlLk6GJQsqaUBKTNV-1">
          <mxGeometry x="3720" y="1925" width="40" height="40" as="geometry" />
        </mxCell>
        <mxCell id="iXo4fdOBWfQgzPz0DK_l-30" value="" style="endArrow=none;html=1;rounded=0;" edge="1" parent="WIyWlLk6GJQsqaUBKTNV-1">
          <mxGeometry width="50" height="50" relative="1" as="geometry">
            <mxPoint x="3740" y="2095" as="sourcePoint" />
            <mxPoint x="3820" y="2095" as="targetPoint" />
          </mxGeometry>
        </mxCell>
        <mxCell id="iXo4fdOBWfQgzPz0DK_l-31" value="" style="endArrow=none;html=1;rounded=0;" edge="1" parent="WIyWlLk6GJQsqaUBKTNV-1">
          <mxGeometry width="50" height="50" relative="1" as="geometry">
            <mxPoint x="3820" y="2095" as="sourcePoint" />
            <mxPoint x="3820" y="1945" as="targetPoint" />
          </mxGeometry>
        </mxCell>
        <mxCell id="iXo4fdOBWfQgzPz0DK_l-32" value="" style="endArrow=classic;html=1;rounded=0;" edge="1" parent="WIyWlLk6GJQsqaUBKTNV-1">
          <mxGeometry width="50" height="50" relative="1" as="geometry">
            <mxPoint x="3820" y="1945" as="sourcePoint" />
            <mxPoint x="3760" y="1945" as="targetPoint" />
          </mxGeometry>
        </mxCell>
        <mxCell id="iXo4fdOBWfQgzPz0DK_l-33" value="" style="endArrow=classic;html=1;rounded=0;" edge="1" parent="WIyWlLk6GJQsqaUBKTNV-1">
          <mxGeometry width="50" height="50" relative="1" as="geometry">
            <mxPoint x="3739.5" y="1925" as="sourcePoint" />
            <mxPoint x="3740" y="1905" as="targetPoint" />
          </mxGeometry>
        </mxCell>
        <mxCell id="iXo4fdOBWfQgzPz0DK_l-34" value="&lt;font style=&quot;font-size: 18px;&quot;&gt;Transformer Encoder&lt;/font&gt;" style="text;html=1;strokeColor=none;fillColor=none;align=center;verticalAlign=middle;whiteSpace=wrap;rounded=0;" vertex="1" parent="WIyWlLk6GJQsqaUBKTNV-1">
          <mxGeometry x="3510" y="1950" width="90" height="60" as="geometry" />
        </mxCell>
        <mxCell id="iXo4fdOBWfQgzPz0DK_l-38" value="Predicted label n / Predicted Bounding box coordinates" style="ellipse;whiteSpace=wrap;html=1;" vertex="1" parent="WIyWlLk6GJQsqaUBKTNV-1">
          <mxGeometry x="2980" y="1770" width="120" height="80" as="geometry" />
        </mxCell>
        <mxCell id="iXo4fdOBWfQgzPz0DK_l-40" value="" style="endArrow=classic;html=1;rounded=0;" edge="1" parent="WIyWlLk6GJQsqaUBKTNV-1">
          <mxGeometry width="50" height="50" relative="1" as="geometry">
            <mxPoint x="3060" y="1910" as="sourcePoint" />
            <mxPoint x="3060" y="1850" as="targetPoint" />
          </mxGeometry>
        </mxCell>
        <mxCell id="iXo4fdOBWfQgzPz0DK_l-41" value="" style="endArrow=classic;html=1;rounded=0;" edge="1" parent="WIyWlLk6GJQsqaUBKTNV-1">
          <mxGeometry width="50" height="50" relative="1" as="geometry">
            <mxPoint x="3020" y="1910" as="sourcePoint" />
            <mxPoint x="3020" y="1850" as="targetPoint" />
          </mxGeometry>
        </mxCell>
        <mxCell id="iXo4fdOBWfQgzPz0DK_l-42" value="&lt;font style=&quot;font-size: 10px;&quot;&gt;&lt;code&gt;num_classes + 1&lt;/code&gt; output units&lt;br&gt;&lt;/font&gt;" style="text;html=1;strokeColor=none;fillColor=none;align=center;verticalAlign=middle;whiteSpace=wrap;rounded=0;" vertex="1" parent="WIyWlLk6GJQsqaUBKTNV-1">
          <mxGeometry x="3050" y="1860" width="185" height="30" as="geometry" />
        </mxCell>
        <mxCell id="iXo4fdOBWfQgzPz0DK_l-43" value="" style="endArrow=classic;html=1;rounded=0;" edge="1" parent="WIyWlLk6GJQsqaUBKTNV-1">
          <mxGeometry width="50" height="50" relative="1" as="geometry">
            <mxPoint x="3039.57" y="1770" as="sourcePoint" />
            <mxPoint x="3039.57" y="1710" as="targetPoint" />
          </mxGeometry>
        </mxCell>
        <mxCell id="iXo4fdOBWfQgzPz0DK_l-44" value="" style="endArrow=classic;html=1;rounded=0;" edge="1" parent="WIyWlLk6GJQsqaUBKTNV-1">
          <mxGeometry width="50" height="50" relative="1" as="geometry">
            <mxPoint x="3050" y="1770" as="sourcePoint" />
            <mxPoint x="3050" y="1710" as="targetPoint" />
          </mxGeometry>
        </mxCell>
        <mxCell id="iXo4fdOBWfQgzPz0DK_l-46" value="" style="endArrow=classic;html=1;rounded=0;" edge="1" parent="WIyWlLk6GJQsqaUBKTNV-1">
          <mxGeometry width="50" height="50" relative="1" as="geometry">
            <mxPoint x="3030" y="1770" as="sourcePoint" />
            <mxPoint x="3030" y="1710" as="targetPoint" />
          </mxGeometry>
        </mxCell>
        <mxCell id="iXo4fdOBWfQgzPz0DK_l-48" value="" style="rounded=1;whiteSpace=wrap;html=1;" vertex="1" parent="WIyWlLk6GJQsqaUBKTNV-1">
          <mxGeometry x="2710" y="720" width="660" height="980" as="geometry" />
        </mxCell>
        <mxCell id="iXo4fdOBWfQgzPz0DK_l-49" value="" style="shape=sumEllipse;perimeter=ellipsePerimeter;whiteSpace=wrap;html=1;backgroundOutline=1;" vertex="1" parent="WIyWlLk6GJQsqaUBKTNV-1">
          <mxGeometry x="2740" y="1510" width="60" height="60" as="geometry" />
        </mxCell>
        <mxCell id="iXo4fdOBWfQgzPz0DK_l-51" value="" style="shape=sumEllipse;perimeter=ellipsePerimeter;whiteSpace=wrap;html=1;backgroundOutline=1;" vertex="1" parent="WIyWlLk6GJQsqaUBKTNV-1">
          <mxGeometry x="2830" y="1510" width="60" height="60" as="geometry" />
        </mxCell>
        <mxCell id="iXo4fdOBWfQgzPz0DK_l-52" value="" style="shape=sumEllipse;perimeter=ellipsePerimeter;whiteSpace=wrap;html=1;backgroundOutline=1;" vertex="1" parent="WIyWlLk6GJQsqaUBKTNV-1">
          <mxGeometry x="2920" y="1510" width="60" height="60" as="geometry" />
        </mxCell>
        <mxCell id="iXo4fdOBWfQgzPz0DK_l-54" value="" style="shape=sumEllipse;perimeter=ellipsePerimeter;whiteSpace=wrap;html=1;backgroundOutline=1;" vertex="1" parent="WIyWlLk6GJQsqaUBKTNV-1">
          <mxGeometry x="3100" y="1510" width="60" height="60" as="geometry" />
        </mxCell>
        <mxCell id="iXo4fdOBWfQgzPz0DK_l-55" value="" style="shape=sumEllipse;perimeter=ellipsePerimeter;whiteSpace=wrap;html=1;backgroundOutline=1;" vertex="1" parent="WIyWlLk6GJQsqaUBKTNV-1">
          <mxGeometry x="3190" y="1510" width="60" height="60" as="geometry" />
        </mxCell>
        <mxCell id="iXo4fdOBWfQgzPz0DK_l-56" value="" style="shape=sumEllipse;perimeter=ellipsePerimeter;whiteSpace=wrap;html=1;backgroundOutline=1;" vertex="1" parent="WIyWlLk6GJQsqaUBKTNV-1">
          <mxGeometry x="3280" y="1510" width="60" height="60" as="geometry" />
        </mxCell>
        <mxCell id="iXo4fdOBWfQgzPz0DK_l-57" value="&lt;font size=&quot;1&quot; face=&quot;Comic Sans MS&quot;&gt;&lt;b&gt;&lt;font style=&quot;font-size: 26px;&quot;&gt;...&lt;/font&gt;&lt;/b&gt;&lt;/font&gt;" style="text;html=1;strokeColor=none;fillColor=none;align=center;verticalAlign=middle;whiteSpace=wrap;rounded=0;" vertex="1" parent="WIyWlLk6GJQsqaUBKTNV-1">
          <mxGeometry x="3010" y="1525" width="60" height="30" as="geometry" />
        </mxCell>
        <mxCell id="iXo4fdOBWfQgzPz0DK_l-59" style="edgeStyle=orthogonalEdgeStyle;rounded=0;orthogonalLoop=1;jettySize=auto;html=1;entryX=0.5;entryY=0;entryDx=0;entryDy=0;" edge="1" parent="WIyWlLk6GJQsqaUBKTNV-1">
          <mxGeometry relative="1" as="geometry">
            <mxPoint x="3064" y="1570" as="sourcePoint" />
            <mxPoint x="3064.13" y="1620" as="targetPoint" />
          </mxGeometry>
        </mxCell>
        <mxCell id="iXo4fdOBWfQgzPz0DK_l-63" style="edgeStyle=orthogonalEdgeStyle;rounded=0;orthogonalLoop=1;jettySize=auto;html=1;entryX=0.5;entryY=0;entryDx=0;entryDy=0;" edge="1" parent="WIyWlLk6GJQsqaUBKTNV-1">
          <mxGeometry relative="1" as="geometry">
            <mxPoint x="3015" y="1570" as="sourcePoint" />
            <mxPoint x="3015" y="1620" as="targetPoint" />
          </mxGeometry>
        </mxCell>
        <mxCell id="iXo4fdOBWfQgzPz0DK_l-64" value="Gate1" style="text;html=1;strokeColor=none;fillColor=none;align=center;verticalAlign=middle;whiteSpace=wrap;rounded=0;" vertex="1" parent="WIyWlLk6GJQsqaUBKTNV-1">
          <mxGeometry x="2740" y="1580" width="60" height="30" as="geometry" />
        </mxCell>
        <mxCell id="iXo4fdOBWfQgzPz0DK_l-65" value="Gate 2" style="text;html=1;strokeColor=none;fillColor=none;align=center;verticalAlign=middle;whiteSpace=wrap;rounded=0;" vertex="1" parent="WIyWlLk6GJQsqaUBKTNV-1">
          <mxGeometry x="2830" y="1580" width="60" height="30" as="geometry" />
        </mxCell>
        <mxCell id="iXo4fdOBWfQgzPz0DK_l-66" value="Gate n" style="text;html=1;strokeColor=none;fillColor=none;align=center;verticalAlign=middle;whiteSpace=wrap;rounded=0;" vertex="1" parent="WIyWlLk6GJQsqaUBKTNV-1">
          <mxGeometry x="3280" y="1580" width="60" height="30" as="geometry" />
        </mxCell>
        <mxCell id="iXo4fdOBWfQgzPz0DK_l-94" style="edgeStyle=orthogonalEdgeStyle;rounded=0;orthogonalLoop=1;jettySize=auto;html=1;entryX=0.5;entryY=1;entryDx=0;entryDy=0;" edge="1" parent="WIyWlLk6GJQsqaUBKTNV-1" source="iXo4fdOBWfQgzPz0DK_l-68" target="iXo4fdOBWfQgzPz0DK_l-93">
          <mxGeometry relative="1" as="geometry" />
        </mxCell>
        <mxCell id="iXo4fdOBWfQgzPz0DK_l-68" value="" style="rounded=1;whiteSpace=wrap;html=1;" vertex="1" parent="WIyWlLk6GJQsqaUBKTNV-1">
          <mxGeometry x="2740" y="1340" width="600" height="120" as="geometry" />
        </mxCell>
        <mxCell id="iXo4fdOBWfQgzPz0DK_l-69" value="Expert 1" style="rounded=1;whiteSpace=wrap;html=1;" vertex="1" parent="WIyWlLk6GJQsqaUBKTNV-1">
          <mxGeometry x="2760" y="1370" width="80" height="60" as="geometry" />
        </mxCell>
        <mxCell id="iXo4fdOBWfQgzPz0DK_l-71" value="Expert 2" style="rounded=1;whiteSpace=wrap;html=1;" vertex="1" parent="WIyWlLk6GJQsqaUBKTNV-1">
          <mxGeometry x="2860" y="1370" width="80" height="60" as="geometry" />
        </mxCell>
        <mxCell id="iXo4fdOBWfQgzPz0DK_l-72" value="Expert 3" style="rounded=1;whiteSpace=wrap;html=1;" vertex="1" parent="WIyWlLk6GJQsqaUBKTNV-1">
          <mxGeometry x="2960" y="1370" width="80" height="60" as="geometry" />
        </mxCell>
        <mxCell id="iXo4fdOBWfQgzPz0DK_l-73" value="Expert m" style="rounded=1;whiteSpace=wrap;html=1;" vertex="1" parent="WIyWlLk6GJQsqaUBKTNV-1">
          <mxGeometry x="3240" y="1370" width="80" height="60" as="geometry" />
        </mxCell>
        <mxCell id="iXo4fdOBWfQgzPz0DK_l-74" value="&lt;font size=&quot;1&quot; face=&quot;Comic Sans MS&quot;&gt;&lt;b&gt;&lt;font style=&quot;font-size: 26px;&quot;&gt;...&lt;/font&gt;&lt;/b&gt;&lt;/font&gt;" style="text;html=1;strokeColor=none;fillColor=none;align=center;verticalAlign=middle;whiteSpace=wrap;rounded=0;" vertex="1" parent="WIyWlLk6GJQsqaUBKTNV-1">
          <mxGeometry x="3110" y="1385" width="60" height="30" as="geometry" />
        </mxCell>
        <mxCell id="iXo4fdOBWfQgzPz0DK_l-75" value="&lt;font style=&quot;font-size: 22px;&quot;&gt;MoE Layer&lt;/font&gt;&lt;br&gt;m &amp;gt;= n" style="text;html=1;strokeColor=none;fillColor=none;align=center;verticalAlign=middle;whiteSpace=wrap;rounded=0;" vertex="1" parent="WIyWlLk6GJQsqaUBKTNV-1">
          <mxGeometry x="3340" y="1370" width="220" height="60" as="geometry" />
        </mxCell>
        <mxCell id="iXo4fdOBWfQgzPz0DK_l-78" value="" style="endArrow=classic;html=1;rounded=0;" edge="1" parent="WIyWlLk6GJQsqaUBKTNV-1">
          <mxGeometry width="50" height="50" relative="1" as="geometry">
            <mxPoint x="2770" y="1510" as="sourcePoint" />
            <mxPoint x="3140" y="1430" as="targetPoint" />
          </mxGeometry>
        </mxCell>
        <mxCell id="iXo4fdOBWfQgzPz0DK_l-79" value="" style="endArrow=none;dashed=1;html=1;rounded=0;entryX=0.5;entryY=1;entryDx=0;entryDy=0;" edge="1" parent="WIyWlLk6GJQsqaUBKTNV-1" target="iXo4fdOBWfQgzPz0DK_l-71">
          <mxGeometry width="50" height="50" relative="1" as="geometry">
            <mxPoint x="2770" y="1510" as="sourcePoint" />
            <mxPoint x="2880" y="1460" as="targetPoint" />
          </mxGeometry>
        </mxCell>
        <mxCell id="iXo4fdOBWfQgzPz0DK_l-80" value="Comparison&lt;br&gt;Guided Expert Loss&lt;br&gt;(Bipartite matching is effectively done here)" style="rounded=0;whiteSpace=wrap;html=1;" vertex="1" parent="WIyWlLk6GJQsqaUBKTNV-1">
          <mxGeometry x="2965" y="870" width="150" height="70" as="geometry" />
        </mxCell>
        <mxCell id="iXo4fdOBWfQgzPz0DK_l-82" value="Bipartite Matching" style="rounded=1;whiteSpace=wrap;html=1;" vertex="1" parent="WIyWlLk6GJQsqaUBKTNV-1">
          <mxGeometry x="2980" y="1620" width="120" height="60" as="geometry" />
        </mxCell>
        <mxCell id="iXo4fdOBWfQgzPz0DK_l-83" style="edgeStyle=orthogonalEdgeStyle;rounded=0;orthogonalLoop=1;jettySize=auto;html=1;entryX=0.5;entryY=0;entryDx=0;entryDy=0;" edge="1" parent="WIyWlLk6GJQsqaUBKTNV-1">
          <mxGeometry relative="1" as="geometry">
            <mxPoint x="3040" y="1570" as="sourcePoint" />
            <mxPoint x="3040.13" y="1620" as="targetPoint" />
          </mxGeometry>
        </mxCell>
        <mxCell id="iXo4fdOBWfQgzPz0DK_l-90" style="edgeStyle=orthogonalEdgeStyle;rounded=0;orthogonalLoop=1;jettySize=auto;html=1;entryX=0.729;entryY=1.017;entryDx=0;entryDy=0;entryPerimeter=0;" edge="1" parent="WIyWlLk6GJQsqaUBKTNV-1" source="iXo4fdOBWfQgzPz0DK_l-14" target="iXo4fdOBWfQgzPz0DK_l-68">
          <mxGeometry relative="1" as="geometry">
            <mxPoint x="3120" y="1710" as="targetPoint" />
            <Array as="points">
              <mxPoint x="3740" y="1790" />
              <mxPoint x="3177" y="1790" />
            </Array>
          </mxGeometry>
        </mxCell>
        <mxCell id="iXo4fdOBWfQgzPz0DK_l-91" value="Encoded Sequence of patches" style="text;html=1;strokeColor=none;fillColor=none;align=center;verticalAlign=middle;whiteSpace=wrap;rounded=0;" vertex="1" parent="WIyWlLk6GJQsqaUBKTNV-1">
          <mxGeometry x="3350" y="1760" width="230" height="30" as="geometry" />
        </mxCell>
        <mxCell id="iXo4fdOBWfQgzPz0DK_l-96" style="edgeStyle=orthogonalEdgeStyle;rounded=0;orthogonalLoop=1;jettySize=auto;html=1;entryX=0.5;entryY=0;entryDx=0;entryDy=0;" edge="1" parent="WIyWlLk6GJQsqaUBKTNV-1" source="iXo4fdOBWfQgzPz0DK_l-86" target="iXo4fdOBWfQgzPz0DK_l-80">
          <mxGeometry relative="1" as="geometry" />
        </mxCell>
        <mxCell id="iXo4fdOBWfQgzPz0DK_l-86" value="Ground Truth Label / Bounding box&lt;br&gt;AND&lt;br&gt;Special marked ground truth Label / Bounding box" style="ellipse;whiteSpace=wrap;html=1;" vertex="1" parent="WIyWlLk6GJQsqaUBKTNV-1">
          <mxGeometry x="2935" y="740" width="210" height="100" as="geometry" />
        </mxCell>
        <mxCell id="iXo4fdOBWfQgzPz0DK_l-115" style="edgeStyle=orthogonalEdgeStyle;rounded=0;orthogonalLoop=1;jettySize=auto;html=1;entryX=0.5;entryY=1;entryDx=0;entryDy=0;" edge="1" parent="WIyWlLk6GJQsqaUBKTNV-1" source="iXo4fdOBWfQgzPz0DK_l-93" target="iXo4fdOBWfQgzPz0DK_l-108">
          <mxGeometry relative="1" as="geometry" />
        </mxCell>
        <mxCell id="iXo4fdOBWfQgzPz0DK_l-93" value="Expert Predictions" style="ellipse;whiteSpace=wrap;html=1;" vertex="1" parent="WIyWlLk6GJQsqaUBKTNV-1">
          <mxGeometry x="2985" y="1270" width="110" height="50" as="geometry" />
        </mxCell>
        <mxCell id="iXo4fdOBWfQgzPz0DK_l-97" value="OUTPUT Predictions" style="ellipse;whiteSpace=wrap;html=1;" vertex="1" parent="WIyWlLk6GJQsqaUBKTNV-1">
          <mxGeometry x="2200" y="921.25" width="160" height="107.5" as="geometry" />
        </mxCell>
        <mxCell id="iXo4fdOBWfQgzPz0DK_l-100" style="edgeStyle=orthogonalEdgeStyle;rounded=0;orthogonalLoop=1;jettySize=auto;html=1;entryX=0;entryY=0.5;entryDx=0;entryDy=0;" edge="1" parent="WIyWlLk6GJQsqaUBKTNV-1" source="iXo4fdOBWfQgzPz0DK_l-38" target="iXo4fdOBWfQgzPz0DK_l-80">
          <mxGeometry relative="1" as="geometry">
            <Array as="points">
              <mxPoint x="2630" y="1810" />
              <mxPoint x="2630" y="905" />
            </Array>
          </mxGeometry>
        </mxCell>
        <mxCell id="iXo4fdOBWfQgzPz0DK_l-101" value="Loss of the DETR bipartite matching is guiding the MoE Gate bipartite matching. The MoE takes input from the Encoder and learns to &quot;slice&quot; parts up depending on the gate matched by the bipartite matching between Gates and Decoder prediction labels. The Decoder prediction is then bipartite matched with the ground truth labels as the main loss." style="text;html=1;strokeColor=none;fillColor=none;align=center;verticalAlign=middle;whiteSpace=wrap;rounded=0;" vertex="1" parent="WIyWlLk6GJQsqaUBKTNV-1">
          <mxGeometry x="3130" y="805" width="220" height="200" as="geometry" />
        </mxCell>
        <mxCell id="iXo4fdOBWfQgzPz0DK_l-102" value="" style="endArrow=classic;html=1;rounded=0;entryX=1;entryY=0.5;entryDx=0;entryDy=0;" edge="1" parent="WIyWlLk6GJQsqaUBKTNV-1" target="iXo4fdOBWfQgzPz0DK_l-108">
          <mxGeometry width="50" height="50" relative="1" as="geometry">
            <mxPoint x="3120" y="1230" as="sourcePoint" />
            <mxPoint x="3060" y="1230" as="targetPoint" />
          </mxGeometry>
        </mxCell>
        <mxCell id="iXo4fdOBWfQgzPz0DK_l-103" style="edgeStyle=orthogonalEdgeStyle;rounded=0;orthogonalLoop=1;jettySize=auto;html=1;entryX=0.5;entryY=1;entryDx=0;entryDy=0;" edge="1" parent="WIyWlLk6GJQsqaUBKTNV-1" source="iXo4fdOBWfQgzPz0DK_l-104" target="iXo4fdOBWfQgzPz0DK_l-109">
          <mxGeometry relative="1" as="geometry" />
        </mxCell>
        <mxCell id="iXo4fdOBWfQgzPz0DK_l-104" value="FFN&lt;br&gt;&lt;code&gt;class_embed&lt;/code&gt;" style="rounded=0;whiteSpace=wrap;html=1;" vertex="1" parent="WIyWlLk6GJQsqaUBKTNV-1">
          <mxGeometry x="2980" y="1010" width="120" height="50" as="geometry" />
        </mxCell>
        <mxCell id="iXo4fdOBWfQgzPz0DK_l-106" style="edgeStyle=orthogonalEdgeStyle;rounded=0;orthogonalLoop=1;jettySize=auto;html=1;entryX=0.5;entryY=1;entryDx=0;entryDy=0;" edge="1" parent="WIyWlLk6GJQsqaUBKTNV-1" source="iXo4fdOBWfQgzPz0DK_l-108" target="iXo4fdOBWfQgzPz0DK_l-111">
          <mxGeometry relative="1" as="geometry" />
        </mxCell>
        <mxCell id="iXo4fdOBWfQgzPz0DK_l-107" style="edgeStyle=orthogonalEdgeStyle;rounded=0;orthogonalLoop=1;jettySize=auto;html=1;entryX=1;entryY=0.5;entryDx=0;entryDy=0;" edge="1" parent="WIyWlLk6GJQsqaUBKTNV-1" source="iXo4fdOBWfQgzPz0DK_l-108" target="iXo4fdOBWfQgzPz0DK_l-114">
          <mxGeometry relative="1" as="geometry">
            <Array as="points">
              <mxPoint x="3040" y="1200" />
              <mxPoint x="3120" y="1200" />
              <mxPoint x="3120" y="1095" />
            </Array>
          </mxGeometry>
        </mxCell>
        <mxCell id="iXo4fdOBWfQgzPz0DK_l-108" value="Normalization" style="rounded=0;whiteSpace=wrap;html=1;" vertex="1" parent="WIyWlLk6GJQsqaUBKTNV-1">
          <mxGeometry x="2990" y="1215" width="100" height="30" as="geometry" />
        </mxCell>
        <mxCell id="iXo4fdOBWfQgzPz0DK_l-116" style="edgeStyle=orthogonalEdgeStyle;rounded=0;orthogonalLoop=1;jettySize=auto;html=1;exitX=0.5;exitY=0;exitDx=0;exitDy=0;entryX=0.5;entryY=1;entryDx=0;entryDy=0;" edge="1" parent="WIyWlLk6GJQsqaUBKTNV-1" source="iXo4fdOBWfQgzPz0DK_l-109" target="iXo4fdOBWfQgzPz0DK_l-80">
          <mxGeometry relative="1" as="geometry" />
        </mxCell>
        <mxCell id="iXo4fdOBWfQgzPz0DK_l-117" style="edgeStyle=orthogonalEdgeStyle;rounded=0;orthogonalLoop=1;jettySize=auto;html=1;entryX=1;entryY=0.5;entryDx=0;entryDy=0;" edge="1" parent="WIyWlLk6GJQsqaUBKTNV-1" source="iXo4fdOBWfQgzPz0DK_l-109" target="iXo4fdOBWfQgzPz0DK_l-97">
          <mxGeometry relative="1" as="geometry" />
        </mxCell>
        <mxCell id="iXo4fdOBWfQgzPz0DK_l-109" value="Normalization" style="rounded=0;whiteSpace=wrap;html=1;" vertex="1" parent="WIyWlLk6GJQsqaUBKTNV-1">
          <mxGeometry x="2990" y="960" width="100" height="30" as="geometry" />
        </mxCell>
        <mxCell id="iXo4fdOBWfQgzPz0DK_l-110" style="edgeStyle=orthogonalEdgeStyle;rounded=0;orthogonalLoop=1;jettySize=auto;html=1;entryX=0.5;entryY=1;entryDx=0;entryDy=0;" edge="1" parent="WIyWlLk6GJQsqaUBKTNV-1" source="iXo4fdOBWfQgzPz0DK_l-111" target="iXo4fdOBWfQgzPz0DK_l-114">
          <mxGeometry relative="1" as="geometry" />
        </mxCell>
        <mxCell id="iXo4fdOBWfQgzPz0DK_l-111" value="Multi-head Self-Attention" style="rounded=0;whiteSpace=wrap;html=1;" vertex="1" parent="WIyWlLk6GJQsqaUBKTNV-1">
          <mxGeometry x="2980" y="1130" width="120" height="50" as="geometry" />
        </mxCell>
        <mxCell id="iXo4fdOBWfQgzPz0DK_l-112" style="edgeStyle=orthogonalEdgeStyle;rounded=0;orthogonalLoop=1;jettySize=auto;html=1;entryX=0.5;entryY=1;entryDx=0;entryDy=0;" edge="1" parent="WIyWlLk6GJQsqaUBKTNV-1" source="iXo4fdOBWfQgzPz0DK_l-114" target="iXo4fdOBWfQgzPz0DK_l-104">
          <mxGeometry relative="1" as="geometry" />
        </mxCell>
        <mxCell id="iXo4fdOBWfQgzPz0DK_l-113" style="edgeStyle=orthogonalEdgeStyle;rounded=0;orthogonalLoop=1;jettySize=auto;html=1;exitX=0.5;exitY=0;exitDx=0;exitDy=0;entryX=1;entryY=0.5;entryDx=0;entryDy=0;" edge="1" parent="WIyWlLk6GJQsqaUBKTNV-1" source="iXo4fdOBWfQgzPz0DK_l-114" target="iXo4fdOBWfQgzPz0DK_l-109">
          <mxGeometry relative="1" as="geometry">
            <Array as="points">
              <mxPoint x="3040" y="1070" />
              <mxPoint x="3120" y="1070" />
              <mxPoint x="3120" y="975" />
            </Array>
          </mxGeometry>
        </mxCell>
        <mxCell id="iXo4fdOBWfQgzPz0DK_l-114" value="Normalization" style="rounded=0;whiteSpace=wrap;html=1;" vertex="1" parent="WIyWlLk6GJQsqaUBKTNV-1">
          <mxGeometry x="2990" y="1080" width="100" height="30" as="geometry" />
        </mxCell>
      </root>
    </mxGraphModel>
  </diagram>
</mxfile>
